<svg xmlns="http://www.w3.org/2000/svg" viewBox="0 0 800 600" width="800" height="600" role="img">
<defs>
<linearGradient id="ceu" gradientTransform="rotate(159)">
<stop offset="0%" stop-color="#f0d9c0"/>
<stop offset="100%" stop-color="#d9a273"/>
</linearGradient>
<radialGradient id="vinheta" cx="50%" cy="44%" r="74%">
<stop offset="58%" stop-color="#000" stop-opacity="0"/>
<stop offset="100%" stop-color="#000" stop-opacity="0.32"/>
</radialGradient>
<clipPath id="corte"><rect width="800" height="600"/></clipPath>
</defs>
<g clip-path="url(#corte)">
<rect width="800" height="600" fill="url(#ceu)"/>
<rect x="126" y="108" width="194" height="7" rx="3" fill="#e6b384" opacity="0.22"/>
<rect x="277" y="140" width="261" height="7" rx="3" fill="#e6b384" opacity="0.22"/>
<rect x="451" y="169" width="194" height="7" rx="3" fill="#e6b384" opacity="0.22"/>
<rect x="524" y="187" width="189" height="7" rx="3" fill="#e6b384" opacity="0.22"/>
<path d="M0 460h800v140H0z" fill="#b5713f"/>
<ellipse cx="400" cy="460" rx="320" ry="26" fill="#8f4d22" opacity="0.5"/>
<g>
<path d="M400 176q-40 20-40 58 0 24 14 42-62 42-62 122 0 92 88 92t88-92q0-80-62-122 14-18 14-42 0-38-40-58z" fill="#c2703c"/>
<ellipse cx="400" cy="186" rx="44" ry="15" fill="#e6b384"/>
<path d="M358 258q-70 10-70 72 0 44 32 64" stroke="#8f4d22" stroke-width="19" fill="none" stroke-linecap="round"/>
<path d="M442 258q70 10 70 72 0 44-32 64" stroke="#8f4d22" stroke-width="19" fill="none" stroke-linecap="round"/>
<path d="M306 316q94 20 188 0" stroke="#5c2c11" stroke-width="6" fill="none" opacity="0.65"/>
<path d="M311 356q94 15 188 0" stroke="#5c2c11" stroke-width="6" fill="none" opacity="0.65"/>
<path d="M316 396q94 10 188 0" stroke="#5c2c11" stroke-width="6" fill="none" opacity="0.65"/>
<circle cx="400" cy="396" r="24" fill="#e6b384" opacity="0.9"/>
<circle cx="400" cy="396" r="11" fill="#5c2c11" opacity="0.55"/>
<ellipse cx="400" cy="458" rx="66" ry="14" fill="#8f4d22"/>
</g>
<rect width="800" height="600" fill="url(#vinheta)"/>
</g>
</svg>
