<svg xmlns="http://www.w3.org/2000/svg" viewBox="0 0 800 600" width="800" height="600" role="img">
<defs>
<linearGradient id="ceu" gradientTransform="rotate(172)">
<stop offset="0%" stop-color="#f0d9c0"/>
<stop offset="100%" stop-color="#d9a273"/>
</linearGradient>
<radialGradient id="vinheta" cx="50%" cy="44%" r="74%">
<stop offset="58%" stop-color="#000" stop-opacity="0"/>
<stop offset="100%" stop-color="#000" stop-opacity="0.32"/>
</radialGradient>
<clipPath id="corte"><rect width="800" height="600"/></clipPath>
</defs>
<g clip-path="url(#corte)">
<rect width="800" height="600" fill="url(#ceu)"/>
<rect x="411" y="106" width="376" height="7" rx="3" fill="#e6b384" opacity="0.22"/>
<rect x="412" y="138" width="309" height="7" rx="3" fill="#e6b384" opacity="0.22"/>
<rect x="161" y="159" width="142" height="7" rx="3" fill="#e6b384" opacity="0.22"/>
<rect x="151" y="196" width="346" height="7" rx="3" fill="#e6b384" opacity="0.22"/>
<path d="M0 460h800v140H0z" fill="#b5713f"/>
<ellipse cx="400" cy="460" rx="320" ry="26" fill="#8f4d22" opacity="0.5"/>
<g>
<ellipse cx="446.8" cy="396.8" rx="85.2" ry="43.199999999999996" fill="#c2703c"/>
<rect x="404.8" y="420.8" width="19.2" height="38.4" rx="8.4" fill="#8f4d22"/>
<rect x="478" y="420.8" width="19.2" height="38.4" rx="8.4" fill="#8f4d22"/>
<path d="M528.4 386q32.4 -15.6 20.4 -50.4" stroke="#c2703c" stroke-width="10.2" fill="none" stroke-linecap="round"/>
<circle cx="455.2" cy="320.0" r="17.4" fill="#8f4d22"/>
<circle cx="449.7" cy="344.0" r="17.4" fill="#8f4d22"/>
<circle cx="434.4" cy="363.2" r="17.4" fill="#8f4d22"/>
<circle cx="412.3" cy="373.8" r="17.4" fill="#8f4d22"/>
<circle cx="387.7" cy="373.8" r="17.4" fill="#8f4d22"/>
<circle cx="365.6" cy="363.2" r="17.4" fill="#8f4d22"/>
<circle cx="350.3" cy="344.0" r="17.4" fill="#8f4d22"/>
<circle cx="344.8" cy="320.0" r="17.4" fill="#8f4d22"/>
<circle cx="350.3" cy="296.0" r="17.4" fill="#8f4d22"/>
<circle cx="365.6" cy="276.8" r="17.4" fill="#8f4d22"/>
<circle cx="387.7" cy="266.2" r="17.4" fill="#8f4d22"/>
<circle cx="412.3" cy="266.2" r="17.4" fill="#8f4d22"/>
<circle cx="434.4" cy="276.8" r="17.4" fill="#8f4d22"/>
<circle cx="449.7" cy="296.0" r="17.4" fill="#8f4d22"/>
<circle cx="400" cy="320" r="50.4" fill="#c2703c"/>
<ellipse cx="382" cy="310.4" rx="6.6" ry="7.8" fill="#5c2c11"/>
<ellipse cx="418" cy="310.4" rx="6.6" ry="7.8" fill="#5c2c11"/>
<path d="M400 324.8l-9 10.799999999999999h18z" fill="#5c2c11"/>
<path d="M384.4 346.4q15.6 13.2 31.2 0" stroke="#5c2c11" stroke-width="4.2" fill="none" stroke-linecap="round"/>
<path d="M362.8 282.8q9.6 -14.399999999999999 20.4 -3.5999999999999996" stroke="#5c2c11" stroke-width="3.5999999999999996" fill="none" stroke-linecap="round"/>
<path d="M437.2 282.8q-9.6 -14.399999999999999 -20.4 -3.5999999999999996" stroke="#5c2c11" stroke-width="3.5999999999999996" fill="none" stroke-linecap="round"/>
</g>
<rect width="800" height="600" fill="url(#vinheta)"/>
</g>
</svg>
